<svg width="36" height="36" viewBox="0 0 36 36" fill="none" xmlns="http://www.w3.org/2000/svg">
<path d="M20.0769 26.2731C19.8951 26.2734 19.715 26.2377 19.5469 26.168C19.3789 26.0984 19.2264 25.9963 19.098 25.8674L12.1749 18.9443C11.9154 18.6847 11.7695 18.3326 11.7695 17.9654C11.7695 17.5983 11.9154 17.2462 12.1749 16.9865L19.098 10.0634C19.2257 9.93118 19.3785 9.82569 19.5474 9.75313C19.7164 9.68056 19.8981 9.64237 20.0819 9.64077C20.2658 9.63917 20.4481 9.6742 20.6182 9.74382C20.7884 9.81344 20.943 9.91626 21.073 10.0463C21.203 10.1763 21.3058 10.3309 21.3754 10.501C21.4451 10.6712 21.4801 10.8535 21.4785 11.0374C21.4769 11.2212 21.4387 11.4029 21.3661 11.5718C21.2936 11.7408 21.1881 11.8935 21.0559 12.0213L15.1124 17.9654L21.0559 23.9096C21.2494 24.1032 21.3813 24.3499 21.4347 24.6185C21.4881 24.887 21.4606 25.1654 21.3559 25.4183C21.2511 25.6713 21.0737 25.8875 20.846 26.0397C20.6184 26.1918 20.3507 26.2731 20.0769 26.2731Z" fill="#4D4A48"/>
<path d="M18 36C13.0562 36 8.76946 34.2318 5.25808 30.7454C1.76815 27.2298 0 22.9438 0 18C0 13.0555 1.76885 8.77985 5.25669 5.29131C8.76808 1.77992 13.0555 0 18 0C22.9458 0 27.2215 1.78062 30.7101 5.29338C34.2194 8.77846 36 13.0431 36 17.9654C36 22.9438 34.2201 27.2319 30.7087 30.7433C27.2202 34.2312 22.9445 36 18 36ZM18 1.38462C13.4363 1.38462 9.47769 3.02885 6.23561 6.27023C3.01638 9.49015 1.38462 13.4363 1.38462 18C1.38462 22.5644 3.01708 26.5237 6.237 29.7665C9.47631 32.9829 13.4349 34.6154 18 34.6154C22.5644 34.6154 26.5105 32.9836 29.7298 29.7644C32.9718 26.5223 34.6154 22.5644 34.6154 18C34.6154 13.4252 32.9725 9.49085 29.7312 6.27231C26.5092 3.02815 22.563 1.38462 18 1.38462Z" fill="#4D4A48"/>
</svg>
