<svg width="50" height="50" viewBox="0 0 50 50" fill="none" xmlns="http://www.w3.org/2000/svg">
<rect width="50" height="50" rx="24" fill="#3C4E7E"/>
<mask id="path-2-inside-1_137_194" fill="white">
<path d="M41.3322 22.5772H29.4095V10.6645C29.4095 8.77884 27.8881 7.25 26.0025 7.25C24.1168 7.25 22.5962 8.77884 22.5962 10.6653V22.5855H10.6678C8.78215 22.5855 7.24918 24.1143 7.25 26.0008C7.24918 26.9432 7.62994 27.8072 8.24693 28.4242C8.86474 29.0428 9.71713 29.4335 10.6587 29.4335H22.5962V41.3372C22.5962 42.2804 22.9704 43.1344 23.5882 43.7506C24.206 44.3684 25.0559 44.7508 25.9992 44.7508C27.884 44.7508 29.4095 43.222 29.4095 41.3372V29.4327H41.3322C43.2179 29.4327 44.7467 27.8906 44.7459 26.005C44.745 24.1201 43.2162 22.5772 41.3322 22.5772Z"/>
</mask>
<path d="M41.3322 22.5772H29.4095V10.6645C29.4095 8.77884 27.8881 7.25 26.0025 7.25C24.1168 7.25 22.5962 8.77884 22.5962 10.6653V22.5855H10.6678C8.78215 22.5855 7.24918 24.1143 7.25 26.0008C7.24918 26.9432 7.62994 27.8072 8.24693 28.4242C8.86474 29.0428 9.71713 29.4335 10.6587 29.4335H22.5962V41.3372C22.5962 42.2804 22.9704 43.1344 23.5882 43.7506C24.206 44.3684 25.0559 44.7508 25.9992 44.7508C27.884 44.7508 29.4095 43.222 29.4095 41.3372V29.4327H41.3322C43.2179 29.4327 44.7467 27.8906 44.7459 26.005C44.745 24.1201 43.2162 22.5772 41.3322 22.5772Z" fill="#3C4E7E"/>
<path d="M29.4095 22.5772H11.7892V40.1976H29.4095V22.5772ZM22.5962 22.5855V40.2059H40.2166V22.5855H22.5962ZM7.25 26.0008L24.8704 26.0163L24.8704 26.0047L24.8704 25.9931L7.25 26.0008ZM8.24693 28.4242L20.7147 15.973L20.7064 15.9647L8.24693 28.4242ZM22.5962 29.4335H40.2166V11.8131H22.5962V29.4335ZM23.5882 43.7506L36.0477 31.2911L36.0394 31.2828L36.031 31.2744L23.5882 43.7506ZM29.4095 29.4327V11.8123H11.7892V29.4327H29.4095ZM44.7459 26.005L62.3662 25.9972V25.9972L44.7459 26.005ZM41.3322 4.95687H29.4095V40.1976H41.3322V4.95687ZM47.0299 22.5772V10.6645H11.7892V22.5772H47.0299ZM47.0299 10.6645C47.0299 -0.902543 37.6696 -10.3704 26.0025 -10.3704V24.8704C18.1067 24.8704 11.7892 18.4602 11.7892 10.6645H47.0299ZM26.0025 -10.3704C14.327 -10.3704 4.97587 -0.894185 4.97587 10.6653H40.2166C40.2166 18.4519 33.9066 24.8704 26.0025 24.8704V-10.3704ZM4.97587 10.6653V22.5855H40.2166V10.6653H4.97587ZM22.5962 4.96513H10.6678V40.2059H22.5962V4.96513ZM10.6678 4.96513C-0.922851 4.96513 -10.3755 14.3581 -10.3704 26.0085L24.8704 25.9931C24.8738 33.8706 18.4871 40.2059 10.6678 40.2059V4.96513ZM-10.3704 25.9854C-10.3754 31.7227 -8.05463 37.0416 -4.21255 40.8837L20.7064 15.9647C23.3145 18.5728 24.8737 22.1638 24.8704 26.0163L-10.3704 25.9854ZM-4.22087 40.8753C-0.519174 44.582 4.73577 47.0539 10.6587 47.0539V11.8131C14.6985 11.8131 18.2487 13.5037 20.7147 15.973L-4.22087 40.8753ZM10.6587 47.0539H22.5962V11.8131H10.6587V47.0539ZM4.97587 29.4335V41.3372H40.2166V29.4335H4.97587ZM4.97587 41.3372C4.97587 47.0288 7.26068 52.3524 11.1454 56.2267L36.031 31.2744C38.6801 33.9165 40.2166 37.532 40.2166 41.3372H4.97587ZM11.1287 56.2101C14.8996 59.981 20.1729 62.3712 25.9992 62.3712V27.1305C29.9389 27.1305 33.5124 28.7558 36.0477 31.2911L11.1287 56.2101ZM25.9992 62.3712C37.6377 62.3712 47.0299 52.9312 47.0299 41.3372H11.7892C11.7892 33.5127 18.1303 27.1305 25.9992 27.1305V62.3712ZM47.0299 41.3372V29.4327H11.7892V41.3372H47.0299ZM29.4095 47.053H41.3322V11.8123H29.4095V47.053ZM41.3322 47.053C53.0363 47.053 62.3713 37.5332 62.3662 25.9972L27.1255 26.0127C27.1221 18.248 33.3994 11.8123 41.3322 11.8123V47.053ZM62.3662 25.9972C62.3612 14.4855 53.0459 4.95687 41.3322 4.95687V40.1976C33.3865 40.1976 27.1289 33.7548 27.1255 26.0127L62.3662 25.9972Z" fill="#EDEFF2" mask="url(#path-2-inside-1_137_194)"/>
<circle cx="25" cy="25" r="22.5" stroke="#EDEFF2" stroke-width="3"/>
</svg>
