<svg width="345" height="210" viewBox="0 0 245 190" fill="none" xmlns="http://www.w3.org/2000/svg">
<path d="M2.85278 95.1472H242.853" stroke="#EB4D50" stroke-width="4" stroke-linecap="square"/>
<g clip-path="url(#clip0_61_2)">
<path d="M235.384 106.649C232.484 108.704 226.824 111.712 221.877 113.825C212.141 117.977 201.07 121.026 189.386 122.766C183.668 123.611 178.009 124.133 171.322 124.423C157.889 124.995 142.609 125.244 122.482 125.186L108.047 125.153V117.181C108.047 109.906 108.022 109.185 107.773 108.936C107.475 108.638 106.961 108.439 106.215 108.339L105.735 108.273L105.727 109.11V109.955L104.707 110.013C86.9744 111.024 76.2849 111.472 65.6617 111.654C59.2564 111.762 57.8477 111.894 51.0362 113.021C43.595 114.248 41.6809 114.306 38.3995 113.378C37.2394 113.046 34.8197 112.052 34.5629 111.795C34.5131 111.745 34.4634 108.066 34.4634 103.608L34.4634 95.537L70.095 95.537C103.986 95.537 105.727 95.5536 105.718 95.827C105.727 96.1005 108.246 96.117 157.666 96.1336C193.256 96.1419 210.086 96.1999 211.13 96.3159C216.159 96.9042 221.355 98.4372 226.252 100.782C229.327 102.249 232.964 104.395 235.293 106.127L235.699 106.434L235.384 106.649Z" fill="#EB4D50"/>
</g>
<defs>
<clipPath id="clip0_61_2">
<rect width="150" height="146.133" fill="white" transform="matrix(-0.707107 -0.707107 -0.707107 0.707107 235.699 106.434)"/>
</clipPath>
</defs>
</svg>
