<svg width="671" height="26" viewBox="0 0 671 26" fill="none" xmlns="http://www.w3.org/2000/svg">
<path d="M135.873 3.08674C142.373 8.0563 139.669 6.32689 145.873 10.8896H177.824H194.324H210.133H226.824H239.324C255.324 10.8896 275.359 11.1747 284.581 10.8896C293.635 10.6044 360.37 10.3763 432.973 10.3763C550.513 10.3763 589.75 10.6044 664.533 11.8591H671V14.5C669.5 15.5226 670.5 16.0226 667.886 16.0226H667H659.5C645 16.0226 472.086 16.4218 430 15.3382H210.133L179.824 15.7374C137.325 15.7374 145.5 15.5 134 22C128.5 24 132.325 25.5471 88.0657 25.5471C6.40814 25.4901 29.8322 26.1175 19.2687 25.5471L5.80756 24.5776L1.5 15.3382C-1.85352 11.8591 4.63568 11.3549 8.32452 8.78842L5.80756 6.98302L9.92645 2.67675C25.0172 2.44862 11.2705 2.90489 13.618 2.67675C19.6543 2.16345 103.995 0.680582 122.942 0.794649C131.661 0.794649 132.873 1.83675 135.873 3.08674Z" fill="#3C4E7E"/>
</svg>
